<svg aria-hidden="true" style="position: absolute; width: 0; height: 0; overflow: hidden;" version="1.1" xmlns="http://www.w3.org/2000/svg" xmlns:xlink="http://www.w3.org/1999/xlink">
<defs>
<symbol id="icon-druk" viewBox="0 0 160 32">
<path d="M0 31.451v-31.451h26.359c3.401 0 6.271 0.565 8.609 1.694 2.369 1.129 4.16 2.854 5.375 5.173 1.245 2.289 1.868 5.234 1.868 8.835 0 3.571-0.622 6.531-1.868 8.881-1.214 2.32-3.006 4.044-5.375 5.173-2.338 1.129-5.208 1.694-8.609 1.694h-26.359zM8.154 25.041h18.114c1.275 0 2.384-0.183 3.325-0.549s1.731-0.9 2.369-1.602c0.638-0.702 1.108-1.572 1.412-2.61s0.456-2.228 0.456-3.571v-1.923c0-1.373-0.152-2.579-0.456-3.617s-0.774-1.908-1.412-2.609-1.427-1.236-2.369-1.602c-0.941-0.366-2.050-0.549-3.325-0.549h-18.114v18.632z"></path>
<path d="M47.215 31.451v-31.451h31.46c2.308 0 4.236 0.443 5.785 1.328 1.549 0.855 2.703 2.045 3.462 3.571 0.789 1.495 1.184 3.174 1.184 5.036 0 2.014-0.471 3.815-1.412 5.402-0.911 1.556-2.202 2.777-3.872 3.662l6.286 12.452h-9.11l-5.193-11.079h-20.437v11.079h-8.154zM55.369 14.283h21.712c1.124 0 2.020-0.366 2.688-1.099 0.698-0.763 1.048-1.77 1.048-3.021 0-0.824-0.152-1.526-0.456-2.106s-0.729-1.022-1.275-1.328c-0.547-0.336-1.215-0.504-2.004-0.504h-21.712v8.057z"></path>
<path d="M108.291 32c-3.006 0-5.603-0.473-7.789-1.419-2.156-0.946-3.811-2.365-4.965-4.257s-1.731-4.242-1.731-7.050v-19.273h8.199v19.090c0 2.014 0.532 3.601 1.594 4.761s2.627 1.74 4.692 1.74 3.644-0.58 4.737-1.74c1.093-1.16 1.64-2.747 1.64-4.761v-19.090h8.154v19.273c0 2.808-0.577 5.158-1.731 7.050s-2.809 3.311-4.965 4.257c-2.156 0.946-4.768 1.419-7.835 1.419z"></path>
<path d="M129.117 31.451v-31.451h8.154v13.963l12.39-13.963h10.112l-11.661 12.864 11.889 18.587h-9.657l-7.88-13.001-5.193 4.807v8.195h-8.154z"></path>
</symbol>
<symbol id="icon-f" viewBox="0 0 18 32">
<path d="M10.787 32v-14.597h4.899l0.734-5.689h-5.633v-3.632c0-1.647 0.457-2.769 2.819-2.769l3.012-0.001v-5.088c-0.521-0.069-2.309-0.224-4.389-0.224-4.343 0-7.316 2.651-7.316 7.519v4.195h-4.912v5.689h4.912v14.597h5.875z"></path>
</symbol>
<symbol id="icon-Frame-1" viewBox="0 0 49 32">
<path d="M2.683 27.077l42.635-24.615 1.231 2.132-42.635 24.615-1.231-2.132z"></path>
<path d="M3.913 2.626l42.635 24.615-1.231 2.132-42.635-24.615 1.231-2.132z"></path>
</symbol>
<symbol id="icon-insta" viewBox="0 0 32 32">
<path d="M24 0h-16c-4.4 0-8 3.599-8 8v16c0 4.4 3.6 8 8 8h16c4.4 0 8-3.6 8-8v-16c0-4.401-3.6-8-8-8zM15.999 22.667c-3.682 0-6.667-2.986-6.667-6.666 0-3.682 2.984-6.667 6.667-6.667 3.681 0 6.667 2.984 6.667 6.667 0 3.681-2.986 6.666-6.667 6.666zM22.667 7.334c0 1.104 0.894 2 2 2s2-0.896 2-2c0-1.104-0.894-2-2-2s-2 0.896-2 2z"></path>
</symbol>
<symbol id="icon-kubik" viewBox="0 0 488 32">
<path d="M228.8 8h12.8v12.8h-12.8v-12.8z"></path>
<path d="M246.4 8h12.8v12.8h-12.8v-12.8z"></path>
</symbol>
<symbol id="icon-logo" viewBox="0 0 100 32">
<path fill="#fff" style="fill: var(--color1, #fff)" d="M43.014 18.824c0-3.792-2.232-6.648-5.688-6.648-1.536 0-2.832 0.648-3.768 1.896v-6.072h-3.336v17.232h3.072v-1.848c0.984 1.344 2.376 2.088 4.032 2.088 3.456 0 5.688-2.904 5.688-6.648zM39.582 18.824c0 2.4-1.368 3.672-3 3.672-1.656 0-3-1.296-3-3.72s1.392-3.648 3-3.648c1.632 0 3 1.248 3 3.696zM47.312 25.232v-17.232h-3.36v17.232h3.36zM56.735 25.232h2.712v-8.064c0-3.144-1.968-4.992-5.328-4.992-3.096 0-5.232 1.92-5.424 4.872h3c0.12-1.44 0.984-2.28 2.424-2.28 1.392 0 2.208 0.84 2.208 2.28v0.768c-0.792-0.096-1.416-0.144-2.136-0.144-3.744 0-5.76 1.344-5.76 3.84 0 2.4 1.776 3.96 4.44 3.96 1.752 0 3.024-0.624 3.864-1.824v1.584zM51.575 21.416c0-1.152 0.936-1.752 2.832-1.752 0.576 0 1.128 0.048 1.92 0.168v0.912c0 1.488-1.032 2.424-2.736 2.424-1.248 0-2.016-0.672-2.016-1.752zM64.458 18.248c0-2.064 1.128-3.12 2.448-3.12 1.512 0 2.256 1.056 2.256 2.952v7.152h3.312v-8.28c0-3.096-1.776-4.776-4.344-4.776-1.68 0-3 0.792-3.936 2.064v-1.824h-3.072v12.816h3.336v-6.984zM77.485 25.232v-5.952l4.896 5.952h4.248l-5.928-6.672 5.304-6.144h-3.84l-4.68 5.424v-9.84h-3.336v17.232h3.336zM91.831 25.472c3.72 0 6.504-2.928 6.504-6.648 0-3.744-2.784-6.648-6.504-6.648s-6.504 2.904-6.504 6.648c0 3.72 2.784 6.648 6.504 6.648zM91.831 22.52c-1.656 0-3.072-1.32-3.072-3.696s1.416-3.672 3.072-3.672c1.656 0 3.072 1.296 3.072 3.672s-1.416 3.696-3.072 3.696z"></path>
<path fill="#ff7043" style="fill: var(--color2, #ff7043)" d="M19.556 5.333h-4.444v15.111h4.444v-15.111z"></path>
<path fill="#ff7043" style="fill: var(--color2, #ff7043)" d="M15.111 24.889v-4.444h-15.111v4.444h15.111z"></path>
<path fill="#ff7043" style="fill: var(--color2, #ff7043)" d="M19.556 9.778v-4.444h-15.111v4.444h15.111z"></path>
<path fill="#ff7043" style="fill: var(--color2, #ff7043)" d="M0 24.889h4.444v-15.111h-4.444v15.111z"></path>
</symbol>
<symbol id="icon-tw" viewBox="0 0 39 32">
<path d="M37.607 3.828c-0.243-0.26-0.631-0.325-0.945-0.158-0.381 0.175-0.777 0.317-1.182 0.425 0.601-0.749 1.055-1.604 1.339-2.521 0.078-0.318-0.049-0.65-0.319-0.836s-0.625-0.185-0.895 0.001c-1.255 0.694-2.595 1.224-3.986 1.575-1.494-1.486-3.517-2.319-5.624-2.316-1.681 0.037-3.319 0.545-4.726 1.465-2.993 1.686-3.513 5.577-3.293 7.987-5.549-0.468-10.668-3.175-14.178-7.499-0.144-0.221-0.383-0.361-0.646-0.378-0.263 0.018-0.499 0.165-0.63 0.394-1.623 2.81-1.488 6.303 0.347 8.98-0.236-0.158-0.488-0.347-0.74-0.551-0.235-0.233-0.591-0.294-0.89-0.153s-0.479 0.454-0.449 0.783c0.048 2.932 1.516 5.657 3.938 7.31l-0.614-0.173c-0.292-0.091-0.611-0.004-0.817 0.222s-0.262 0.551-0.144 0.834c1.236 2.793 3.658 4.885 6.601 5.703-2.683 1.55-5.79 2.201-8.869 1.859-0.372-0.046-0.725 0.177-0.844 0.533s0.030 0.746 0.355 0.932c3.704 2.161 7.921 3.287 12.209 3.261 6.057-0.049 11.798-2.708 15.754-7.294 3.941-4.224 6.014-9.857 5.75-15.628 1.404-1.073 2.613-2.378 3.576-3.86 0.164-0.286 0.133-0.645-0.079-0.898z"></path>
</symbol>
<symbol id="icon-webflow" viewBox="0 0 124 32">
<path d="M39.645 12.138c0-2.226-2.136-4.561-5.848-4.561-4.163 0-8.733 3.065-9.433 9.183-0.715 6.177 3.112 8.922 6.97 8.922s5.878-1.51 7.944-3.523c-1.777-2.24-4.071-1.205-4.511-0.977-0.728 0.406-1.552 0.606-2.385 0.58-1.489 0-3.008-0.671-3.008-3.462 9.539-0.946 10.268-3.951 10.268-6.163h0.001zM34.918 12.504c-0.061 0.686-0.334 1.86-5.165 2.518 1.016-3.631 2.963-3.904 3.858-3.904 0.181-0.008 0.362 0.023 0.531 0.090s0.32 0.171 0.445 0.303c0.125 0.132 0.22 0.289 0.279 0.46s0.080 0.354 0.062 0.535l-0.010-0.003zM18.762 13.099l-2.218 7.001-1.565-12.156c-3.492 0-5.37 2.502-6.35 5.139l-2.705 7.032-0.38-6.957c-0.206-3.233-3.158-5.201-5.544-5.201l2.886 17.586c3.659-0.014 5.635-2.502 6.669-5.139l2.287-5.978c0.021 0.243 1.581 11.119 1.581 11.119 3.676 0 5.651-2.333 6.71-4.881l5.148-12.705c-3.624 0-5.535 2.486-6.521 5.139h0.003zM53.135 7.534c-2.264 0-3.993 1.235-5.454 3.050v-0.014l1.305-10.57c-3.008 0-5.454 2.624-5.924 6.528l-2.262 18.88c1.732 0 3.57-0.504 4.558-1.785 0.882 1.144 2.202 2.059 4.163 2.059 5.073 0 8.552-5.917 8.552-11.47-0.031-5.064-2.477-6.664-4.922-6.664l-0.015-0.014zM52.662 16.609c-0.529 3.096-2.248 5.201-3.903 5.201s-2.385-0.747-2.385-0.747c0.32-2.713 0.518-4.377 1.124-5.811s2.051-3.722 3.555-3.722c1.475 0 2.143 1.967 1.61 5.078l-0.001 0.001zM70.724 7.946h-3.539l0.014-0.184c0.243-2.318 0.79-3.538 2.593-3.737 1.231-0.122 1.778-0.762 1.914-1.464l0.441-2.456c-7.096-0.046-9.341 3.033-9.913 7.733l-0.014 0.107h-0.077c-1.155 0-2.429 1.312-2.643 2.975l-0.077 0.609h2.371l-1.99 16.501-0.609 2.959c0.077 0 0.167 0.014 0.242 0.014 3.325-0.122 5.454-2.76 5.924-6.589l1.553-12.888h1.113c1.094 0 2.371-1.099 2.593-2.929l0.103-0.653zM89.134 7.64c-4.086 0-7.944 3.019-9.127 7.763s0.609 10.355 6.623 10.355c6.013 0 9.457-5.843 9.457-10.707 0.006-4.835-3.258-7.413-6.951-7.413l-0.001 0.001zM90.79 16.455c-0.211 2.151-1.155 5.415-3.737 5.415s-2.233-3.812-1.983-5.628c0.274-1.937 1.352-4.697 3.676-4.697 2.090 0 2.286 2.486 2.045 4.911l-0.001-0.001zM116.278 13.084l-2.218 7.001c-0.060-0.55-1.564-12.156-1.564-12.156-3.492 0-5.362 2.502-6.342 5.139l-2.705 7.032c-0.014-0.504-0.38-6.957-0.38-6.957-0.22-3.233-3.169-5.201-5.565-5.201l2.87 17.586c3.659-0.014 5.635-2.502 6.669-5.139l2.279-5.978c0.014 0.243 1.581 11.119 1.581 11.119 3.676 0 5.643-2.333 6.71-4.881l5.152-12.705c-3.615 0-5.529 2.486-6.502 5.139h0.014zM74.066 0.103l-2.977 24.111-0.609 2.975c0.075 0 0.167 0.014 0.242 0.014 3.203-0.046 5.482-2.866 5.909-6.421l1.715-13.834c0.52-4.225-1.985-6.848-4.28-6.848v0.003z"></path>
</symbol>
<symbol id="icon-menu" viewBox="0 0 32 32">
<path d="M4.799 8.001c0-0.424 0.169-0.831 0.469-1.131s0.707-0.469 1.131-0.469h19.2c0.424 0 0.831 0.169 1.131 0.469s0.469 0.707 0.469 1.131-0.169 0.831-0.469 1.131c-0.3 0.3-0.707 0.469-1.131 0.469h-19.2c-0.424 0-0.831-0.169-1.131-0.469s-0.469-0.707-0.469-1.131z"></path>
<path d="M4.799 16.001c0-0.424 0.169-0.831 0.469-1.131s0.707-0.469 1.131-0.469h19.2c0.424 0 0.831 0.169 1.131 0.469s0.469 0.707 0.469 1.131c0 0.424-0.169 0.831-0.469 1.131s-0.707 0.469-1.131 0.469h-19.2c-0.424 0-0.831-0.169-1.131-0.469s-0.469-0.707-0.469-1.131z"></path>
<path d="M4.799 24.001c0-0.424 0.169-0.831 0.469-1.131s0.707-0.469 1.131-0.469h19.2c0.424 0 0.831 0.169 1.131 0.469s0.469 0.707 0.469 1.131c0 0.424-0.169 0.831-0.469 1.131s-0.707 0.469-1.131 0.469h-19.2c-0.424 0-0.831-0.169-1.131-0.469s-0.469-0.707-0.469-1.131z"></path>
</symbol>
<symbol id="icon-Vector" viewBox="0 0 40 32">
<path d="M33.782 1.020c0.691-0.662 1.611-1.027 2.565-1.020s1.869 0.387 2.55 1.059c0.681 0.672 1.076 1.584 1.101 2.543s-0.321 1.891-0.966 2.598l-19.578 24.617c-0.337 0.365-0.743 0.657-1.195 0.86s-0.939 0.312-1.434 0.322c-0.495 0.009-0.986-0.082-1.445-0.268s-0.876-0.463-1.226-0.815l-12.984-13.054c-0.362-0.339-0.652-0.747-0.853-1.201s-0.309-0.944-0.318-1.441 0.082-0.99 0.267-1.451c0.185-0.461 0.461-0.879 0.81-1.231s0.766-0.628 1.224-0.814 0.949-0.277 1.443-0.269c0.494 0.009 0.981 0.118 1.433 0.32s0.858 0.494 1.195 0.857l10.275 10.325 17.042-21.83c0.031-0.038 0.063-0.074 0.098-0.109h-0.005z"></path>
</symbol>
<symbol id="icon-close" viewBox="0 0 32 32">
<path d="M32 3.223l-3.223-3.223-12.777 12.777-12.777-12.777-3.223 3.223 12.777 12.777-12.777 12.777 3.223 3.223 12.777-12.777 12.777 12.777 3.223-3.223-12.777-12.777 12.777-12.777z"></path>
</symbol>
<symbol id="icon-email" viewBox="0 0 24 32">
<path d="M20 8h-16c-1.1 0-1.99 0.9-1.99 2l-0.010 12c0 1.1 0.9 2 2 2h16c1.1 0 2-0.9 2-2v-12c0-1.1-0.9-2-2-2zM19.6 12.25l-7.070 4.42c-0.32 0.2-0.74 0.2-1.060 0l-7.070-4.42c-0.25-0.16-0.4-0.43-0.4-0.72 0-0.67 0.73-1.070 1.3-0.72l6.7 4.19 6.7-4.19c0.57-0.35 1.3 0.050 1.3 0.72 0 0.29-0.15 0.56-0.4 0.72z"></path>
</symbol>
<symbol id="icon-Frame-3" viewBox="0 0 32 32">
<path d="M32 2.667l-32 15 10.227 3.156 15.773-12.323-11.998 13.488 0.010 0.003-0.012-0.003v7.345l5.735-5.576 7.265 2.242 5-23.333z"></path>
</symbol>
<symbol id="icon-burger" viewBox="0 0 58 32">
<path d="M0 0h58.182v2.909h-58.182v-2.909z"></path>
<path d="M0 14.545h58.182v2.909h-58.182v-2.909z"></path>
<path d="M0 29.091h58.182v2.909h-58.182v-2.909z"></path>
</symbol>
<symbol id="icon-kub" viewBox="0 0 76 32">
<path fill="#fff" style="fill: var(--color1, #fff)" d="M0 0h32v32h-32v-32z"></path>
<path fill="#fff" style="fill: var(--color1, #fff)" opacity="0.4" d="M44 0h32v32h-32v-32z"></path>
</symbol>
</defs>
</svg>
